G04 DesignSpark PCB Gerber Version 12.0 Build 5942*
G04 #@! TF.Part,Single*
G04 #@! TF.FileFunction,Soldermask,Top*
G04 #@! TF.FilePolarity,Negative*
%FSLAX35Y35*%
%MOIN*%
G04 #@! TA.AperFunction,ComponentPad*
%ADD21C,0.12024*%
%ADD25O,0.14780X0.07299*%
%ADD23O,0.12811X0.07693*%
%ADD28O,0.12811X0.08874*%
%ADD24R,0.14780X0.07299*%
%ADD22R,0.12811X0.07693*%
G04 #@! TA.AperFunction,WasherPad*
%ADD20C,0.15173*%
G04 #@! TA.AperFunction,ComponentPad*
%AMT26*0 Rounded Rectangle Pad at angle 90*4,1,60,0.06406,-0.01738,0.06406,0.01738,0.06391,0.01991,0.06349,0.02241,0.06279,0.02485,0.06182,0.02719,0.06059,0.02941,0.05912,0.03148,0.05743,0.03337,0.05554,0.03506,0.05348,0.03653,0.05126,0.03776,0.04891,0.03873,0.04648,0.03943,0.04398,0.03986,0.04143,0.04000,-0.04143,0.04000,-0.04396,0.03986,-0.04646,0.03943,-0.04890,0.03873,-0.05124,0.03776,-0.05346,0.03654,-0.05554,0.03507,-0.05743,0.03338,-0.05911,0.03149,-0.06058,0.02942,-0.06181,0.02720,-0.06278,0.02486,-0.06349,0.02242,-0.06391,0.01992,-0.06406,0.01738,-0.06406,-0.01738,-0.06391,-0.01991,-0.06349,-0.02241,-0.06279,-0.02485,-0.06182,-0.02719,-0.06059,-0.02941,-0.05912,-0.03148,-0.05743,-0.03337,-0.05554,-0.03506,-0.05348,-0.03653,-0.05126,-0.03776,-0.04891,-0.03873,-0.04648,-0.03943,-0.04398,-0.03986,-0.04143,-0.04000,0.04143,-0.04000,0.04396,-0.03986,0.04646,-0.03943,0.04890,-0.03873,0.05124,-0.03776,0.05346,-0.03654,0.05554,-0.03507,0.05743,-0.03338,0.05911,-0.03149,0.06058,-0.02942,0.06181,-0.02720,0.06278,-0.02486,0.06349,-0.02242,0.06391,-0.01992,0.06406,-0.01738,0*%
%ADD26T26*%
%ADD27R,0.12811X0.08874*%
G04 #@! TD.AperFunction*
X0Y0D02*
D02*
D20*
X15250Y20250D03*
Y145250D03*
X230250Y145368D03*
X230407Y20171D03*
D02*
D21*
X35781Y70093D03*
X69246D03*
X85781D03*
X119246D03*
D02*
D22*
X145250Y140250D03*
D02*
D23*
Y70250D03*
Y80250D03*
Y90250D03*
Y100250D03*
Y110250D03*
Y120250D03*
Y130250D03*
X205250Y70250D03*
Y80250D03*
Y90250D03*
Y100250D03*
Y110250D03*
Y120250D03*
Y130250D03*
Y140250D03*
D02*
D24*
X32967Y49374D03*
D02*
D25*
Y39374D03*
D02*
D26*
X125250Y20250D03*
Y30250D03*
Y40250D03*
D02*
D27*
X230250Y125250D03*
D02*
D28*
Y75250D03*
Y85250D03*
Y95250D03*
Y105250D03*
Y115250D03*
X0Y0D02*
M02*
