G04 DesignSpark PCB Gerber Version 12.0 Build 5942*
G04 #@! TF.Part,Single*
G04 #@! TF.FileFunction,Copper,L1,Top*
G04 #@! TF.FilePolarity,Positive*
%FSLAX35Y35*%
%MOIN*%
G04 #@! TA.AperFunction,ComponentPad*
%ADD14C,0.11024*%
G04 #@! TA.AperFunction,WasherPad*
%ADD13C,0.14173*%
G04 #@! TA.AperFunction,ComponentPad*
%AMT19*0 Rounded Rectangle Pad at angle 90*4,1,56,0.05906,-0.01531,0.05906,0.01531,0.05891,0.01769,0.05848,0.02003,0.05778,0.02230,0.05680,0.02446,0.05557,0.02650,0.05411,0.02837,0.05243,0.03005,0.05056,0.03152,0.04852,0.03274,0.04635,0.03372,0.04408,0.03443,0.04174,0.03486,0.03937,0.03500,-0.03937,0.03500,-0.04174,0.03486,-0.04408,0.03443,-0.04635,0.03372,-0.04852,0.03274,-0.05056,0.03152,-0.05243,0.03005,-0.05411,0.02837,-0.05557,0.02650,-0.05680,0.02446,-0.05778,0.02230,-0.05848,0.02003,-0.05891,0.01769,-0.05906,0.01531,-0.05906,-0.01531,-0.05891,-0.01769,-0.05848,-0.02003,-0.05778,-0.02230,-0.05680,-0.02446,-0.05557,-0.02650,-0.05411,-0.02837,-0.05243,-0.03005,-0.05056,-0.03152,-0.04852,-0.03274,-0.04635,-0.03372,-0.04408,-0.03443,-0.04174,-0.03486,-0.03937,-0.03500,0.03937,-0.03500,0.04174,-0.03486,0.04408,-0.03443,0.04635,-0.03372,0.04852,-0.03274,0.05056,-0.03152,0.05243,-0.03005,0.05411,-0.02837,0.05557,-0.02650,0.05680,-0.02446,0.05778,-0.02230,0.05848,-0.02003,0.05891,-0.01769,0.05906,-0.01531,0*%
%ADD19T19*%
%ADD18O,0.13780X0.06299*%
%ADD16O,0.11811X0.06693*%
%ADD71O,0.11811X0.07874*%
%ADD17R,0.13780X0.06299*%
%ADD15R,0.11811X0.06693*%
%ADD70R,0.11811X0.07874*%
G04 #@! TD.AperFunction*
X0Y0D02*
D02*
D13*
X15250Y20250D03*
Y145250D03*
X230250Y145368D03*
X230407Y20171D03*
D02*
D14*
X35781Y70093D03*
X69246D03*
X85781D03*
X119246D03*
D02*
D15*
X145250Y140250D03*
D02*
D16*
Y70250D03*
Y80250D03*
Y90250D03*
Y100250D03*
Y110250D03*
Y120250D03*
Y130250D03*
X205250Y70250D03*
Y80250D03*
Y90250D03*
Y100250D03*
Y110250D03*
Y120250D03*
Y130250D03*
Y140250D03*
D02*
D17*
X32967Y49374D03*
D02*
D18*
Y39374D03*
D02*
D19*
X125250Y20250D03*
Y30250D03*
Y40250D03*
D02*
D70*
X230250Y125250D03*
D02*
D71*
Y75250D03*
Y85250D03*
Y95250D03*
Y105250D03*
Y115250D03*
X0Y0D02*
M02*
