G04 DesignSpark PCB Gerber Version 12.0 Build 5942*
G04 #@! TF.Part,Single*
G04 #@! TF.FileFunction,Soldermask,Bot*
G04 #@! TF.FilePolarity,Negative*
%FSLAX35Y35*%
%MOIN*%
G04 #@! TA.AperFunction,SMDPad,CuDef*
%ADD83R,0.12411X0.12411*%
G04 #@! TA.AperFunction,ComponentPad*
%ADD77C,0.11624*%
G04 #@! TA.AperFunction,SMDPad,CuDef*
%ADD84C,0.12411*%
G04 #@! TA.AperFunction,ComponentPad*
%ADD81O,0.14380X0.06899*%
%ADD79O,0.12411X0.07293*%
%ADD87O,0.12411X0.08474*%
%ADD80R,0.14380X0.06899*%
%ADD78R,0.12411X0.07293*%
G04 #@! TA.AperFunction,WasherPad*
%ADD76C,0.14773*%
G04 #@! TA.AperFunction,SMDPad,CuDef*
%AMT82*0 Octagon Pad at angle 0*4,1,8,-0.02570,-0.06206,0.02570,-0.06206,0.06206,-0.02570,0.06206,0.02570,0.02570,0.06206,-0.02570,0.06206,-0.06206,0.02570,-0.06206,-0.02570,-0.02570,-0.06206,0*%
%ADD82T82*%
G04 #@! TA.AperFunction,ComponentPad*
%AMT85*0 Rounded Rectangle Pad at angle 90*4,1,56,0.06206,-0.01655,0.06206,0.01655,0.06190,0.01914,0.06143,0.02169,0.06066,0.02416,0.05959,0.02652,0.05826,0.02874,0.05666,0.03078,0.05483,0.03261,0.05279,0.03420,0.05057,0.03554,0.04821,0.03661,0.04574,0.03738,0.04319,0.03784,0.04061,0.03800,-0.04061,0.03800,-0.04319,0.03784,-0.04574,0.03737,-0.04821,0.03660,-0.05057,0.03554,-0.05279,0.03420,-0.05483,0.03260,-0.05666,0.03077,-0.05826,0.02873,-0.05960,0.02652,-0.06066,0.02415,-0.06143,0.02168,-0.06190,0.01913,-0.06206,0.01655,-0.06206,-0.01655,-0.06190,-0.01914,-0.06143,-0.02169,-0.06066,-0.02416,-0.05959,-0.02652,-0.05826,-0.02874,-0.05666,-0.03078,-0.05483,-0.03261,-0.05279,-0.03420,-0.05057,-0.03554,-0.04821,-0.03661,-0.04574,-0.03738,-0.04319,-0.03784,-0.04061,-0.03800,0.04061,-0.03800,0.04319,-0.03784,0.04574,-0.03737,0.04821,-0.03660,0.05057,-0.03554,0.05279,-0.03420,0.05483,-0.03260,0.05666,-0.03077,0.05826,-0.02873,0.05960,-0.02652,0.06066,-0.02415,0.06143,-0.02168,0.06190,-0.01913,0.06206,-0.01655,0*%
%ADD85T85*%
%ADD86R,0.12411X0.08474*%
G04 #@! TD.AperFunction*
X0Y0D02*
D02*
D76*
X15250Y20250D03*
Y145250D03*
X230250Y145368D03*
X230407Y20171D03*
D02*
D77*
X35781Y70093D03*
X69246D03*
X85781D03*
X119246D03*
D02*
D78*
X145250Y140250D03*
D02*
D79*
Y70250D03*
Y80250D03*
Y90250D03*
Y100250D03*
Y110250D03*
Y120250D03*
Y130250D03*
X205250Y70250D03*
Y80250D03*
Y90250D03*
Y100250D03*
Y110250D03*
Y120250D03*
Y130250D03*
Y140250D03*
D02*
D80*
X32967Y49374D03*
D02*
D81*
Y39374D03*
D02*
D82*
X175250Y40250D03*
D02*
D83*
X190250D03*
D02*
D84*
X205250D03*
D02*
D85*
X125250Y20250D03*
Y30250D03*
Y40250D03*
D02*
D86*
X230250Y125250D03*
D02*
D87*
Y75250D03*
Y85250D03*
Y95250D03*
Y105250D03*
Y115250D03*
X0Y0D02*
M02*
