G05
M48
;#@! TF.GenerationSoftware,DesignSpark,DesignSpark PCB,12.0.5940
;#@! TF.CreationDate,2026-04-28T10:20:36+00:00*
;#@! TF.FileFunction,Plated,1,2,PTH
;FILE_FORMAT=3:5
;TYPE=PLATED
INCH,TZ
FMAT,2
T1C000.03500
T2C000.03937
T3C000.04331
T4C000.04724
T5C000.13780
%
T001
X1.20250Y0.20250
X1.20250Y0.30250
X1.20250Y0.40250
T002
X0.15250Y0.75250
X0.15250Y0.85250
X0.15250Y0.95250
X0.15250Y1.05250
X0.15250Y1.15250
X0.15250Y1.25250
T003
X2.12533Y0.39374
X2.12533Y0.49374
X1.00250Y0.70250
X1.00250Y0.80250
X1.00250Y0.90250
X1.00250Y1.00250
X1.00250Y1.10250
X1.00250Y1.20250
X1.00250Y1.30250
X1.00250Y1.40250
X0.40250Y0.70250
X0.40250Y0.80250
X0.40250Y0.90250
X0.40250Y1.00250
X0.40250Y1.10250
X0.40250Y1.20250
X0.40250Y1.30250
X0.40250Y1.40250
T004
X2.09719Y0.70093
X1.76254Y0.70093
X1.59719Y0.70093
X1.26254Y0.70093
T005
X2.30250Y0.20250
X2.30250Y1.45250
X0.15250Y1.45368
X0.15093Y0.20171
M30
