G04 DesignSpark PCB Gerber Version 12.0 Build 5942*
G04 #@! TF.Part,Single*
G04 #@! TF.FileFunction,Legend,Top*
G04 #@! TF.FilePolarity,Positive*
%FSLAX35Y35*%
%MOIN*%
%ADD11C,0.00500*%
%ADD12C,0.00787*%
%ADD10C,0.01575*%
G04 #@! TD.AperFunction*
X0Y0D02*
D02*
D10*
X8695Y39679D02*
X9679Y39187D01*
X10171Y38203D01*
X9679Y37219D01*
X8695Y36726D01*
X5250D01*
Y42632D01*
X8695D01*
X9679Y42140D01*
X10171Y41156D01*
X9679Y40171D01*
X8695Y39679D01*
X5250D01*
X13124Y38695D02*
X17061D01*
X15093Y36726D02*
Y40663D01*
X8695Y54679D02*
X9679Y54187D01*
X10171Y53203D01*
X9679Y52219D01*
X8695Y51726D01*
X5250D01*
Y57632D01*
X8695D01*
X9679Y57140D01*
X10171Y56156D01*
X9679Y55171D01*
X8695Y54679D01*
X5250D01*
X13124Y53695D02*
X17061D01*
X160250Y23695D02*
X164187D01*
X162219Y21726D02*
Y25663D01*
X168124Y22219D02*
X169108Y21726D01*
X170585D01*
X171569Y22219D01*
X172061Y23203D01*
Y23695D01*
X171569Y24679D01*
X170585Y25171D01*
X168124D01*
Y27632D01*
X172061D01*
X185742Y22219D02*
X186726Y21726D01*
X187711D01*
X188695Y22219D01*
X189187Y23203D01*
Y26156D01*
X188695Y27140D01*
X187711Y27632D01*
X186726D01*
X185742Y27140D01*
X185250Y26156D01*
Y23203D01*
X185742Y22219D01*
X188695Y27140D01*
X193124Y27632D02*
X195585Y21726D01*
X198045Y27632D01*
X215250Y38203D02*
X215742Y37219D01*
X216726Y36726D01*
X218695D01*
X219679Y37219D01*
X220171Y38203D01*
X219679Y39187D01*
X218695Y39679D01*
X216726D01*
X215742Y40171D01*
X215250Y41156D01*
X215742Y42140D01*
X216726Y42632D01*
X218695D01*
X219679Y42140D01*
X220171Y41156D01*
X224600Y36726D02*
X226569D01*
X225585D02*
Y42632D01*
X224600D02*
X226569D01*
X234443Y39187D02*
X235919D01*
Y38695D01*
X235427Y37711D01*
X234935Y37219D01*
X233951Y36726D01*
X232967D01*
X231982Y37219D01*
X231490Y37711D01*
X230998Y38695D01*
Y40663D01*
X231490Y41648D01*
X231982Y42140D01*
X232967Y42632D01*
X233951D01*
X234935Y42140D01*
X235427Y41648D01*
X235919Y40663D01*
D02*
D11*
X29679Y64679D02*
X125644D01*
Y136037D01*
X29679D01*
Y64679D01*
X34600Y136037D02*
X67573D01*
Y149325D01*
X34600D01*
Y136037D01*
X42750Y55250D02*
Y32750D01*
X44207Y55811D02*
Y32750D01*
X21372D01*
Y53311D01*
X23872Y55811D01*
X44207D01*
X46813Y54000D02*
X46500Y53687D01*
X46187Y53063D01*
X46500Y52437D01*
X46813Y52125D01*
X49937D01*
Y51500D01*
Y52125D02*
Y53375D01*
X46187Y48375D02*
Y47125D01*
Y47750D02*
X49937D01*
X49313Y48375D01*
X95250Y144937D02*
Y142125D01*
X95563Y141500D01*
X96187Y141187D01*
X97437D01*
X98063Y141500D01*
X98375Y142125D01*
Y144937D01*
X100875Y141187D02*
X102125D01*
X101500D02*
Y144937D01*
X100875Y144313D01*
X120250Y45250D02*
X130250D01*
Y15250D01*
X120250D01*
Y45250D01*
X139600Y143006D02*
G75*
G03*
Y137494I0J-2756D01*
G01*
G75*
G03*
Y143006I0J2756D01*
G01*
G36*
X139600Y143006D02*
G75*
G03*
Y137494I0J-2756D01*
G01*
G75*
G03*
Y143006I0J2756D01*
G01*
G37*
X155250Y155250D02*
Y115250D01*
X197750D01*
Y155250D01*
X155250D01*
X205250Y21813D02*
X205563Y21500D01*
X206187Y21187D01*
X206813Y21500D01*
X207125Y21813D01*
Y24937D01*
X207750D01*
X207125D02*
X205875D01*
X212750Y21187D02*
X210250D01*
X212437Y23375D01*
X212750Y24000D01*
X212437Y24625D01*
X211813Y24937D01*
X210875D01*
X210250Y24625D01*
X213656Y146687D02*
Y63813D01*
X136844D01*
Y146687D01*
X174625D01*
Y146062D01*
X175875D01*
Y146687D01*
X213656D01*
X222343Y148187D02*
X219531D01*
X218906Y147874D01*
X218593Y147250D01*
Y146000D01*
X218906Y145374D01*
X219531Y145062D01*
X222343D01*
X218593Y140687D02*
Y143187D01*
X220781Y141000D01*
X221406Y140687D01*
X222031Y141000D01*
X222343Y141624D01*
Y142562D01*
X222031Y143187D01*
X220250Y62125D02*
X220563Y61500D01*
X221187Y61187D01*
X222437D01*
X223063Y61500D01*
X223375Y62125D01*
X223063Y62750D01*
X222437Y63063D01*
X221187D01*
X220563Y63375D01*
X220250Y64000D01*
X220563Y64625D01*
X221187Y64937D01*
X222437D01*
X223063Y64625D01*
X223375Y64000D01*
X225250Y61187D02*
Y64937D01*
Y63063D02*
X226187D01*
X228375Y64937D01*
X226187Y63063D02*
X228375Y61187D01*
X230875D02*
X232125D01*
X231500D02*
Y64937D01*
X230875Y64313D01*
X239915Y131333D02*
Y69128D01*
X241490Y131687D02*
Y68813D01*
X218656D01*
Y129187D01*
X221156Y131687D01*
X241490D01*
D02*
D12*
X36815Y79197D02*
X37307Y78951D01*
X37553Y78459D01*
X37307Y77967D01*
X36815Y77720D01*
X35093D01*
Y80673D01*
X36815D01*
X37307Y80427D01*
X37553Y79935D01*
X37307Y79443D01*
X36815Y79197D01*
X35093D01*
X39030Y78705D02*
X40998D01*
X68311Y79197D02*
X68803Y78951D01*
X69049Y78459D01*
X68803Y77967D01*
X68311Y77720D01*
X66589D01*
Y80673D01*
X68311D01*
X68803Y80427D01*
X69049Y79935D01*
X68803Y79443D01*
X68311Y79197D01*
X66589D01*
X70526Y78705D02*
X72494D01*
X71510Y77720D02*
Y79689D01*
X85289Y80673D02*
X86520Y77720D01*
X87750Y80673D01*
X89226Y78705D02*
X91195D01*
X118262Y80673D02*
X119492Y77720D01*
X120722Y80673D01*
X122199Y78705D02*
X124167D01*
X123183Y77720D02*
Y79689D01*
X0Y0D02*
M02*
